E01.Numbers.
=============
General
Complete name                    : BBC.The.Code.S01/BBC.The.Code.S01E01.Numbers/The_Code_-_1._Numbers_b012xppj_default.mp4
Format                           : MPEG-4
Format profile                   : Base Media
Codec ID                         : isom
File size                        : 1.10 GiB
Duration                         : 59mn 20s
Overall bit rate                 : 2 654 Kbps
Movie name                       : The Code: Numbers
Album                            : The Code
Track name/Position              : 1
Track name/Total                 : 0
Performer                        : The Code
Genre                            : Factual,Science & Nature
Recorded date                    : 2011-07-27T21:00:00+01:00
Writing application              : Lavf53.6.0
Cover                            : Yes
Comment                          : Recorded using get_iplayer, by Aularon.
rtng                             : 2
stik                             : 1
desc                             : Marcus du Sautoy reveals a hidden numerical code that underpins all nature. He reveals how significant numbers appear throughout the natural world and govern the planet.
tvnn                             : BBC HD
tvsh                             : The Code
tven                             : b012xppj
catg                             : Factual,Science & Nature
tves                             : 1

Video
ID                               : 1
Format                           : AVC
Format/Info                      : Advanced Video Codec
Format profile                   : High@L4.1
Format settings, CABAC           : Yes
Format settings, ReFrames        : 6 frames
Codec ID                         : avc1
Codec ID/Info                    : Advanced Video Coding
Duration                         : 59mn 20s
Bit rate mode                    : Variable
Bit rate                         : 2 554 Kbps
Maximum bit rate                 : 3 500 Kbps
Width                            : 1 280 pixels
Height                           : 720 pixels
Display aspect ratio             : 16:9
Frame rate mode                  : Constant
Frame rate                       : 25.000 fps
Standard                         : PAL
Color space                      : YUV
Chroma subsampling               : 4:2:0
Bit depth                        : 8 bits
Scan type                        : Progressive
Bits/(Pixel*Frame)               : 0.111
Stream size                      : 1.06 GiB (96%)

Audio
ID                               : 2
Format                           : AAC
Format/Info                      : Advanced Audio Codec
Format profile                   : HE-AAC / LC
Codec ID                         : 40
Duration                         : 59mn 20s
Bit rate mode                    : Constant
Bit rate                         : 96.0 Kbps
Channel(s)                       : 2 channels
Channel positions                : Front: L R
Sampling rate                    : 48.0 KHz / 24.0 KHz
Compression mode                 : Lossy
Stream size                      : 40.2 MiB (4%)

E02.Shapes
=============
General
Complete name                    : BBC.The.Code.S01/BBC.The.Code.S01E02.Shapes/The_Code_-_2._Shapes_b01320wn_default.mp4
Format                           : MPEG-4
Format profile                   : Base Media
Codec ID                         : isom
File size                        : 992 MiB
Duration                         : 58mn 31s
Overall bit rate                 : 2 370 Kbps
Movie name                       : The Code: Shapes
Album                            : The Code
Track name/Position              : 2
Track name/Total                 : 0
Performer                        : The Code
Genre                            : Factual,Science & Nature
Recorded date                    : 2011-08-03T21:00:00+01:00
Writing application              : Lavf53.6.0
Cover                            : Yes
Comment                          : Recorded using get_iplayer, by Aularon.
rtng                             : 2
stik                             : 1
desc                             : Marcus du Sautoy reveals a hidden numerical code that underpins all nature. He uncovers the patterns that explain the shape of the world around us.
tvnn                             : BBC HD
tvsh                             : The Code
tven                             : b01320wn
catg                             : Factual,Science & Nature
tves                             : 2

Video
ID                               : 1
Format                           : AVC
Format/Info                      : Advanced Video Codec
Format profile                   : High@L4.1
Format settings, CABAC           : Yes
Format settings, ReFrames        : 6 frames
Codec ID                         : avc1
Codec ID/Info                    : Advanced Video Coding
Duration                         : 58mn 31s
Bit rate mode                    : Variable
Bit rate                         : 2 269 Kbps
Maximum bit rate                 : 3 500 Kbps
Width                            : 1 280 pixels
Height                           : 720 pixels
Display aspect ratio             : 16:9
Frame rate mode                  : Constant
Frame rate                       : 25.000 fps
Standard                         : PAL
Color space                      : YUV
Chroma subsampling               : 4:2:0
Bit depth                        : 8 bits
Scan type                        : Progressive
Bits/(Pixel*Frame)               : 0.098
Stream size                      : 950 MiB (96%)

Audio
ID                               : 2
Format                           : AAC
Format/Info                      : Advanced Audio Codec
Format profile                   : HE-AAC / LC
Codec ID                         : 40
Duration                         : 58mn 31s
Bit rate mode                    : Constant
Bit rate                         : 96.0 Kbps
Channel(s)                       : 2 channels
Channel positions                : Front: L R
Sampling rate                    : 48.0 KHz / 24.0 KHz
Compression mode                 : Lossy
Stream size                      : 39.7 MiB (4%)

E03.Prediction
=============
General
Complete name                    : BBC.The.Code.S01/BBC.The.Code.S01E03.Prediction/The_Code_-_3._Prediction_b0137xfr_default.mp4
Format                           : MPEG-4
Format profile                   : Base Media
Codec ID                         : isom
File size                        : 1.03 GiB
Duration                         : 58mn 59s
Overall bit rate                 : 2 489 Kbps
Movie name                       : The Code: Prediction
Album                            : The Code
Track name/Position              : 3
Track name/Total                 : 0
Performer                        : The Code
Genre                            : Factual,Science & Nature
Recorded date                    : 2011-08-10T21:00:00+01:00
Writing application              : Lavf53.6.0
Cover                            : Yes
Comment                          : Recorded using get_iplayer, by Aularon.
rtng                             : 2
stik                             : 1
desc                             : Marcus du Sautoy contines exploring the numerical code that underpins nature. He discovers what the code can say about the future, starting with the lunar eclipse.
tvnn                             : BBC HD
tvsh                             : The Code
tven                             : b0137xfr
catg                             : Factual,Science & Nature
tves                             : 3

Video
ID                               : 1
Format                           : AVC
Format/Info                      : Advanced Video Codec
Format profile                   : High@L4.1
Format settings, CABAC           : Yes
Format settings, ReFrames        : 6 frames
Codec ID                         : avc1
Codec ID/Info                    : Advanced Video Coding
Duration                         : 58mn 59s
Bit rate mode                    : Variable
Bit rate                         : 2 388 Kbps
Maximum bit rate                 : 3 500 Kbps
Width                            : 1 280 pixels
Height                           : 720 pixels
Display aspect ratio             : 16:9
Frame rate mode                  : Constant
Frame rate                       : 25.000 fps
Standard                         : PAL
Color space                      : YUV
Chroma subsampling               : 4:2:0
Bit depth                        : 8 bits
Scan type                        : Progressive
Bits/(Pixel*Frame)               : 0.104
Stream size                      : 1 008 MiB (96%)

Audio
ID                               : 2
Format                           : AAC
Format/Info                      : Advanced Audio Codec
Format profile                   : HE-AAC / LC
Codec ID                         : 40
Duration                         : 58mn 59s
Bit rate mode                    : Constant
Bit rate                         : 96.0 Kbps
Channel(s)                       : 2 channels
Channel positions                : Front: L R
Sampling rate                    : 48.0 KHz / 24.0 KHz
Compression mode                 : Lossy
Stream size                      : 40.0 MiB (4%)

